<svg id="my-svg" width="100%" xmlns="http://www.w3.org/2000/svg" xmlns:xlink="http://www.w3.org/1999/xlink" class="flowchart" style="max-width: 2299.4px; background-color: transparent;" viewBox="0 0 2299.40185546875 888.25" role="graphics-document document" aria-roledescription="flowchart-v2"><style>#my-svg{font-family:"trebuchet ms",verdana,arial,sans-serif;font-size:16px;fill:#333;}@keyframes edge-animation-frame{from{stroke-dashoffset:0;}}@keyframes dash{to{stroke-dashoffset:0;}}#my-svg .edge-animation-slow{stroke-dasharray:9,5!important;stroke-dashoffset:900;animation:dash 50s linear infinite;stroke-linecap:round;}#my-svg .edge-animation-fast{stroke-dasharray:9,5!important;stroke-dashoffset:900;animation:dash 20s linear infinite;stroke-linecap:round;}#my-svg .error-icon{fill:#552222;}#my-svg .error-text{fill:#552222;stroke:#552222;}#my-svg .edge-thickness-normal{stroke-width:1px;}#my-svg .edge-thickness-thick{stroke-width:3.5px;}#my-svg .edge-pattern-solid{stroke-dasharray:0;}#my-svg .edge-thickness-invisible{stroke-width:0;fill:none;}#my-svg .edge-pattern-dashed{stroke-dasharray:3;}#my-svg .edge-pattern-dotted{stroke-dasharray:2;}#my-svg .marker{fill:#333333;stroke:#333333;}#my-svg .marker.cross{stroke:#333333;}#my-svg svg{font-family:"trebuchet ms",verdana,arial,sans-serif;font-size:16px;}#my-svg p{margin:0;}#my-svg .label{font-family:"trebuchet ms",verdana,arial,sans-serif;color:#333;}#my-svg .cluster-label text{fill:#333;}#my-svg .cluster-label span{color:#333;}#my-svg .cluster-label span p{background-color:transparent;}#my-svg .label text,#my-svg span{fill:#333;color:#333;}#my-svg .node rect,#my-svg .node circle,#my-svg .node ellipse,#my-svg .node polygon,#my-svg .node path{fill:#ECECFF;stroke:#9370DB;stroke-width:1px;}#my-svg .rough-node .label text,#my-svg .node .label text,#my-svg .image-shape .label,#my-svg .icon-shape .label{text-anchor:middle;}#my-svg .node .katex path{fill:#000;stroke:#000;stroke-width:1px;}#my-svg .rough-node .label,#my-svg .node .label,#my-svg .image-shape .label,#my-svg .icon-shape .label{text-align:center;}#my-svg .node.clickable{cursor:pointer;}#my-svg .root .anchor path{fill:#333333!important;stroke-width:0;stroke:#333333;}#my-svg .arrowheadPath{fill:#333333;}#my-svg .edgePath .path{stroke:#333333;stroke-width:1px;}#my-svg .flowchart-link{stroke:#333333;fill:none;}#my-svg .edgeLabel{background-color:rgba(232,232,232, 0.8);text-align:center;}#my-svg .edgeLabel p{background-color:rgba(232,232,232, 0.8);}#my-svg .edgeLabel rect{opacity:0.5;background-color:rgba(232,232,232, 0.8);fill:rgba(232,232,232, 0.8);}#my-svg .labelBkg{background-color:rgba(232, 232, 232, 0.5);}#my-svg .cluster rect{fill:#ffffde;stroke:#aaaa33;stroke-width:1px;}#my-svg .cluster text{fill:#333;}#my-svg .cluster span{color:#333;}#my-svg div.mermaidTooltip{position:absolute;text-align:center;max-width:200px;padding:2px;font-family:"trebuchet ms",verdana,arial,sans-serif;font-size:12px;background:hsl(80, 100%, 96.2745098039%);border:1px solid #aaaa33;border-radius:2px;pointer-events:none;z-index:100;}#my-svg .flowchartTitleText{text-anchor:middle;font-size:18px;fill:#333;}#my-svg rect.text{fill:none;stroke-width:0;}#my-svg .icon-shape,#my-svg .image-shape{background-color:rgba(232,232,232, 0.8);text-align:center;}#my-svg .icon-shape p,#my-svg .image-shape p{background-color:rgba(232,232,232, 0.8);padding:2px;}#my-svg .icon-shape .label rect,#my-svg .image-shape .label rect{opacity:0.5;background-color:rgba(232,232,232, 0.8);fill:rgba(232,232,232, 0.8);}#my-svg .label-icon{display:inline-block;height:1em;overflow:visible;vertical-align:-0.125em;}#my-svg .node .label-icon path{fill:currentColor;stroke:revert;stroke-width:revert;}#my-svg .node .neo-node{stroke:#9370DB;}#my-svg [data-look="neo"].node rect,#my-svg [data-look="neo"].cluster rect,#my-svg [data-look="neo"].node polygon{stroke:#9370DB;filter:drop-shadow(1px 2px 2px rgba(185, 185, 185, 1));}#my-svg [data-look="neo"].node path{stroke:#9370DB;stroke-width:1px;}#my-svg [data-look="neo"].node .outer-path{filter:drop-shadow(1px 2px 2px rgba(185, 185, 185, 1));}#my-svg [data-look="neo"].node .neo-line path{stroke:#9370DB;filter:none;}#my-svg [data-look="neo"].node circle{stroke:#9370DB;filter:drop-shadow(1px 2px 2px rgba(185, 185, 185, 1));}#my-svg [data-look="neo"].node circle .state-start{fill:#000000;}#my-svg [data-look="neo"].icon-shape .icon{fill:#9370DB;filter:drop-shadow(1px 2px 2px rgba(185, 185, 185, 1));}#my-svg [data-look="neo"].icon-shape .icon-neo path{stroke:#9370DB;filter:drop-shadow(1px 2px 2px rgba(185, 185, 185, 1));}#my-svg :root{--mermaid-font-family:"trebuchet ms",verdana,arial,sans-serif;}#my-svg .userCustody&gt;*{fill:rgb(219, 234, 254)!important;stroke:rgb(29, 78, 216)!important;color:rgb(11, 29, 81)!important;}#my-svg .userCustody span{fill:rgb(219, 234, 254)!important;stroke:rgb(29, 78, 216)!important;color:rgb(11, 29, 81)!important;}#my-svg .userCustody tspan{fill:rgb(11, 29, 81)!important;}#my-svg .havenCustody&gt;*{fill:rgb(237, 233, 254)!important;stroke:rgb(109, 40, 217)!important;color:rgb(31, 17, 71)!important;}#my-svg .havenCustody span{fill:rgb(237, 233, 254)!important;stroke:rgb(109, 40, 217)!important;color:rgb(31, 17, 71)!important;}#my-svg .havenCustody tspan{fill:rgb(31, 17, 71)!important;}#my-svg .agentCustody&gt;*{fill:rgb(255, 237, 213)!important;stroke:rgb(194, 65, 12)!important;color:rgb(58, 28, 8)!important;}#my-svg .agentCustody span{fill:rgb(255, 237, 213)!important;stroke:rgb(194, 65, 12)!important;color:rgb(58, 28, 8)!important;}#my-svg .agentCustody tspan{fill:rgb(58, 28, 8)!important;}#my-svg .onchain&gt;*{fill:rgb(220, 252, 231)!important;stroke:rgb(21, 128, 61)!important;color:rgb(10, 42, 23)!important;}#my-svg .onchain span{fill:rgb(220, 252, 231)!important;stroke:rgb(21, 128, 61)!important;color:rgb(10, 42, 23)!important;}#my-svg .onchain tspan{fill:rgb(10, 42, 23)!important;}#my-svg .external&gt;*{fill:rgb(243, 244, 246)!important;stroke:rgb(75, 85, 99)!important;color:rgb(17, 24, 39)!important;}#my-svg .external span{fill:rgb(243, 244, 246)!important;stroke:rgb(75, 85, 99)!important;color:rgb(17, 24, 39)!important;}#my-svg .external tspan{fill:rgb(17, 24, 39)!important;}</style><g><marker id="my-svg_flowchart-v2-pointEnd" class="marker flowchart-v2" viewBox="0 0 10 10" refX="5" refY="5" markerUnits="userSpaceOnUse" markerWidth="8" markerHeight="8" orient="auto"><path d="M 0 0 L 10 5 L 0 10 z" class="arrowMarkerPath" style="stroke-width: 1; stroke-dasharray: 1, 0;"/></marker><marker id="my-svg_flowchart-v2-pointStart" class="marker flowchart-v2" viewBox="0 0 10 10" refX="4.5" refY="5" markerUnits="userSpaceOnUse" markerWidth="8" markerHeight="8" orient="auto"><path d="M 0 5 L 10 10 L 10 0 z" class="arrowMarkerPath" style="stroke-width: 1; stroke-dasharray: 1, 0;"/></marker><marker id="my-svg_flowchart-v2-pointEnd-margin" class="marker flowchart-v2" viewBox="0 0 11.5 14" refX="11.5" refY="7" markerUnits="userSpaceOnUse" markerWidth="10.5" markerHeight="14" orient="auto"><path d="M 0 0 L 11.5 7 L 0 14 z" class="arrowMarkerPath" style="stroke-width: 0; stroke-dasharray: 1, 0;"/></marker><marker id="my-svg_flowchart-v2-pointStart-margin" class="marker flowchart-v2" viewBox="0 0 11.5 14" refX="1" refY="7" markerUnits="userSpaceOnUse" markerWidth="11.5" markerHeight="14" orient="auto"><polygon points="0,7 11.5,14 11.5,0" class="arrowMarkerPath" style="stroke-width: 0; stroke-dasharray: 1, 0;"/></marker><marker id="my-svg_flowchart-v2-circleEnd" class="marker flowchart-v2" viewBox="0 0 10 10" refX="11" refY="5" markerUnits="userSpaceOnUse" markerWidth="11" markerHeight="11" orient="auto"><circle cx="5" cy="5" r="5" class="arrowMarkerPath" style="stroke-width: 1; stroke-dasharray: 1, 0;"/></marker><marker id="my-svg_flowchart-v2-circleStart" class="marker flowchart-v2" viewBox="0 0 10 10" refX="-1" refY="5" markerUnits="userSpaceOnUse" markerWidth="11" markerHeight="11" orient="auto"><circle cx="5" cy="5" r="5" class="arrowMarkerPath" style="stroke-width: 1; stroke-dasharray: 1, 0;"/></marker><marker id="my-svg_flowchart-v2-circleEnd-margin" class="marker flowchart-v2" viewBox="0 0 10 10" refY="5" refX="12.25" markerUnits="userSpaceOnUse" markerWidth="14" markerHeight="14" orient="auto"><circle cx="5" cy="5" r="5" class="arrowMarkerPath" style="stroke-width: 0; stroke-dasharray: 1, 0;"/></marker><marker id="my-svg_flowchart-v2-circleStart-margin" class="marker flowchart-v2" viewBox="0 0 10 10" refX="-2" refY="5" markerUnits="userSpaceOnUse" markerWidth="14" markerHeight="14" orient="auto"><circle cx="5" cy="5" r="5" class="arrowMarkerPath" style="stroke-width: 0; stroke-dasharray: 1, 0;"/></marker><marker id="my-svg_flowchart-v2-crossEnd" class="marker cross flowchart-v2" viewBox="0 0 11 11" refX="12" refY="5.2" markerUnits="userSpaceOnUse" markerWidth="11" markerHeight="11" orient="auto"><path d="M 1,1 l 9,9 M 10,1 l -9,9" class="arrowMarkerPath" style="stroke-width: 2; stroke-dasharray: 1, 0;"/></marker><marker id="my-svg_flowchart-v2-crossStart" class="marker cross flowchart-v2" viewBox="0 0 11 11" refX="-1" refY="5.2" markerUnits="userSpaceOnUse" markerWidth="11" markerHeight="11" orient="auto"><path d="M 1,1 l 9,9 M 10,1 l -9,9" class="arrowMarkerPath" style="stroke-width: 2; stroke-dasharray: 1, 0;"/></marker><marker id="my-svg_flowchart-v2-crossEnd-margin" class="marker cross flowchart-v2" viewBox="0 0 15 15" refX="17.7" refY="7.5" markerUnits="userSpaceOnUse" markerWidth="12" markerHeight="12" orient="auto"><path d="M 1,1 L 14,14 M 1,14 L 14,1" class="arrowMarkerPath" style="stroke-width: 2.5;"/></marker><marker id="my-svg_flowchart-v2-crossStart-margin" class="marker cross flowchart-v2" viewBox="0 0 15 15" refX="-3.5" refY="7.5" markerUnits="userSpaceOnUse" markerWidth="12" markerHeight="12" orient="auto"><path d="M 1,1 L 14,14 M 1,14 L 14,1" class="arrowMarkerPath" style="stroke-width: 2.5; stroke-dasharray: 1, 0;"/></marker><g class="root"><g class="clusters"><g class="cluster" id="my-svg-EXT" data-look="classic"><rect style="" x="1278.2612113952637" y="8" width="247.78125" height="456"/><g class="cluster-label" transform="translate(1372.2768363952637, 8)"><foreignObject width="59.75" height="24"><div xmlns="http://www.w3.org/1999/xhtml" style="display: table-cell; white-space: nowrap; line-height: 1.5;"><span class="nodeLabel"><p>External</p></span></div></foreignObject></g></g><g class="cluster" id="my-svg-CHAIN" data-look="classic"><rect style="" x="748.5112113952637" y="685.25" width="1542.890625" height="195"/><g class="cluster-label" transform="translate(1402.0971488952637, 685.25)"><foreignObject width="235.71875" height="24"><div xmlns="http://www.w3.org/1999/xhtml" style="display: table-cell; white-space: nowrap; line-height: 1.5;"><span class="nodeLabel"><p>On-chain — Gnosis Chain (id 100)</p></span></div></foreignObject></g></g><g class="cluster" id="my-svg-AGENT_BOX" data-look="classic"><rect style="" x="263.1518363952637" y="31" width="276.25" height="133"/><g class="cluster-label" transform="translate(350.7846488952637, 31)"><foreignObject width="100.984375" height="24"><div xmlns="http://www.w3.org/1999/xhtml" style="display: table-cell; white-space: nowrap; line-height: 1.5;"><span class="nodeLabel"><p>Agent custody</p></span></div></foreignObject></g></g><g class="cluster" id="my-svg-HAVEN" data-look="classic"><rect style="" x="263.1518363952637" y="184" width="776.5" height="411"/><g class="cluster-label" transform="translate(599.4643363952637, 184)"><foreignObject width="103.875" height="24"><div xmlns="http://www.w3.org/1999/xhtml" style="display: table-cell; white-space: nowrap; line-height: 1.5;"><span class="nodeLabel"><p>Haven custody</p></span></div></foreignObject></g></g><g class="cluster" id="my-svg-USER" data-look="classic"><rect style="" x="8" y="615" width="531.4018363952637" height="234.5"/><g class="cluster-label" transform="translate(227.95091819763184, 615)"><foreignObject width="91.5" height="24"><div xmlns="http://www.w3.org/1999/xhtml" style="display: table-cell; white-space: nowrap; line-height: 1.5;"><span class="nodeLabel"><p>User custody</p></span></div></foreignObject></g></g></g><g class="edgePaths"><path d="M84.239,721.883L99.589,712.277C114.939,702.672,145.639,683.461,175.458,673.855C205.277,664.25,234.214,664.25,264.974,647.355C295.733,630.46,328.314,596.67,344.605,579.775L360.896,562.879" id="my-svg-L_U_WEB_0" class="edge-thickness-normal edge-pattern-solid edge-thickness-normal edge-pattern-solid flowchart-link" style=";" data-edge="true" data-et="edge" data-id="L_U_WEB_0" data-points="W3sieCI6ODQuMjM4OTc2OTIwMTQyNjIsInkiOjcyMS44ODI5Mzk5MzgzMzF9LHsieCI6MTc2LjMzOTMzNjM5NTI2MzY3LCJ5Ijo2NjQuMjV9LHsieCI6MjYzLjE1MTgzNjM5NTI2MzcsInkiOjY2NC4yNX0seyJ4IjozNjMuNjcyMTI0MzUzMzc4OSwieSI6NTYwfV0=" data-look="classic" marker-end="url(#my-svg_flowchart-v2-pointEnd)"/><path d="M486.082,521L494.968,521C503.855,521,521.628,521,547.941,521C574.253,521,609.105,521,643.957,521C678.808,521,713.66,521,747.08,507.595C780.501,494.19,812.491,467.38,828.486,453.974L844.481,440.569" id="my-svg-L_WEB_BE_0" class="edge-thickness-normal edge-pattern-solid edge-thickness-normal edge-pattern-solid flowchart-link" style=";" data-edge="true" data-et="edge" data-id="L_WEB_BE_0" data-points="W3sieCI6NDg2LjA4MTUyMzg5NTI2MzcsInkiOjUyMX0seyJ4Ijo1MzkuNDAxODM2Mzk1MjYzNywieSI6NTIxfSx7IngiOjY0My45NTY1MjM4OTUyNjM3LCJ5Ijo1MjF9LHsieCI6NzQ4LjUxMTIxMTM5NTI2MzcsInkiOjUyMX0seyJ4Ijo4NDcuNTQ2NzUxODY2NTc1MiwieSI6NDM4fV0=" data-look="classic" marker-end="url(#my-svg_flowchart-v2-pointEnd)"/><path d="M89.684,732.111L104.127,730.134C118.569,728.157,147.454,724.204,176.366,722.227C205.277,720.25,234.214,720.25,255.544,720.25C276.873,720.25,290.595,720.25,297.455,720.25L304.316,720.25" id="my-svg-L_U_WALLET_0" class="edge-thickness-normal edge-pattern-solid edge-thickness-normal edge-pattern-solid flowchart-link" style=";" data-edge="true" data-et="edge" data-id="L_U_WALLET_0" data-points="W3sieCI6ODkuNjg0MjIwMzg3NzY4MzYsInkiOjczMi4xMTA1NTg4NDMxMzg4fSx7IngiOjE3Ni4zMzkzMzYzOTUyNjM2NywieSI6NzIwLjI1fSx7IngiOjI2My4xNTE4MzYzOTUyNjM3LCJ5Ijo3MjAuMjV9LHsieCI6MzA4LjMxNTg5ODg5NTI2MzcsInkiOjcyMC4yNX1d" data-look="classic" marker-end="url(#my-svg_flowchart-v2-pointEnd)"/><path d="M494.238,720.25L501.765,720.25C509.292,720.25,524.347,720.25,549.3,673.708C574.253,627.167,609.105,534.083,643.957,487.542C678.808,441,713.66,441,739.285,438.634C764.91,436.269,781.308,431.537,789.508,429.172L797.707,426.806" id="my-svg-L_WALLET_BE_0" class="edge-thickness-normal edge-pattern-solid edge-thickness-normal edge-pattern-solid flowchart-link" style=";" data-edge="true" data-et="edge" data-id="L_WALLET_BE_0" data-points="W3sieCI6NDk0LjIzNzc3Mzg5NTI2MzcsInkiOjcyMC4yNX0seyJ4Ijo1MzkuNDAxODM2Mzk1MjYzNywieSI6NzIwLjI1fSx7IngiOjY0My45NTY1MjM4OTUyNjM3LCJ5Ijo0NDF9LHsieCI6NzQ4LjUxMTIxMTM5NTI2MzcsInkiOjQ0MX0seyJ4Ijo4MDEuNTUwMjczODk1MjYzNywieSI6NDI1LjY5NzE1MDIxNzM1NjN9XQ==" data-look="classic" marker-end="url(#my-svg_flowchart-v2-pointEnd)"/><path d="M84.239,749.617L99.589,759.056C114.939,768.495,145.639,787.372,175.458,796.811C205.277,806.25,234.214,806.25,271.704,806.25C309.194,806.25,355.235,806.25,401.277,806.25C447.319,806.25,493.36,806.25,533.807,806.25C574.253,806.25,609.105,806.25,643.957,806.25C678.808,806.25,713.66,806.25,734.585,806.25C755.511,806.25,762.511,806.25,766.011,806.25L769.511,806.25" id="my-svg-L_U_OWNERS_0" class="edge-thickness-normal edge-pattern-dotted edge-thickness-normal edge-pattern-solid flowchart-link" style=";" data-edge="true" data-et="edge" data-id="L_U_OWNERS_0" data-points="W3sieCI6ODQuMjM4OTc2OTIwMTQwNzksInkiOjc0OS42MTcwNjAwNjE2Njc5fSx7IngiOjE3Ni4zMzkzMzYzOTUyNjM2NywieSI6ODA2LjI1fSx7IngiOjI2My4xNTE4MzYzOTUyNjM3LCJ5Ijo4MDYuMjV9LHsieCI6NDAxLjI3NjgzNjM5NTI2MzcsInkiOjgwNi4yNX0seyJ4Ijo1MzkuNDAxODM2Mzk1MjYzNywieSI6ODA2LjI1fSx7IngiOjY0My45NTY1MjM4OTUyNjM3LCJ5Ijo4MDYuMjV9LHsieCI6NzQ4LjUxMTIxMTM5NTI2MzcsInkiOjgwNi4yNX0seyJ4Ijo3NzMuNTExMjExMzk1MjYzNywieSI6ODA2LjI1fV0=" data-look="classic" marker-end="url(#my-svg_flowchart-v2-pointEnd)"/><path d="M1014.652,806.25L1018.819,806.25C1022.985,806.25,1031.319,806.25,1055.369,806.25C1079.42,806.25,1119.188,806.25,1158.957,806.25C1198.725,806.25,1238.493,806.25,1261.877,806.25C1285.261,806.25,1292.261,806.25,1295.761,806.25L1299.261,806.25" id="my-svg-L_OWNERS_SAFE_0" class="edge-thickness-normal edge-pattern-solid edge-thickness-normal edge-pattern-solid flowchart-link" style=";" data-edge="true" data-et="edge" data-id="L_OWNERS_SAFE_0" data-points="W3sieCI6MTAxNC42NTE4MzYzOTUyNjM3LCJ5Ijo4MDYuMjV9LHsieCI6MTAzOS42NTE4MzYzOTUyNjM3LCJ5Ijo4MDYuMjV9LHsieCI6MTE1OC45NTY1MjM4OTUyNjM3LCJ5Ijo4MDYuMjV9LHsieCI6MTI3OC4yNjEyMTEzOTUyNjM3LCJ5Ijo4MDYuMjV9LHsieCI6MTMwMy4yNjEyMTEzOTUyNjM3LCJ5Ijo4MDYuMjV9XQ==" data-look="classic" marker-end="url(#my-svg_flowchart-v2-pointEnd)"/><path d="M1501.042,823.012L1505.209,823.719C1509.376,824.425,1517.709,825.837,1535.621,826.544C1553.532,827.25,1581.022,827.25,1623.861,827.25C1666.701,827.25,1724.891,827.25,1787.537,827.25C1850.183,827.25,1917.285,827.25,1968.381,823.931C2019.477,820.612,2054.568,813.975,2072.114,810.656L2089.659,807.337" id="my-svg-L_SAFE_ERC20_0" class="edge-thickness-normal edge-pattern-solid edge-thickness-normal edge-pattern-solid flowchart-link" style=";" data-edge="true" data-et="edge" data-id="L_SAFE_ERC20_0" data-points="W3sieCI6MTUwMS4wNDI0NjEzOTUyNjM3LCJ5Ijo4MjMuMDEyMzkxMjIyMDk2MX0seyJ4IjoxNTI2LjA0MjQ2MTM5NTI2MzcsInkiOjgyNy4yNX0seyJ4IjoxNjA4LjUxMTIxMTM5NTI2MzcsInkiOjgyNy4yNX0seyJ4IjoxNzgzLjA4MTUyMzg5NTI2MzcsInkiOjgyNy4yNX0seyJ4IjoxOTg0LjM4NjIxMTM5NTI2MzcsInkiOjgyNy4yNX0seyJ4IjoyMDkzLjU4OTMzNjM5NTI2MzcsInkiOjgwNi41OTM5NTcxODUwNzg3fV0=" data-look="classic" marker-end="url(#my-svg_flowchart-v2-pointEnd)"/><path d="M1492.559,779.25L1498.139,777.583C1503.72,775.917,1514.881,772.583,1534.207,770.917C1553.532,769.25,1581.022,769.25,1607.847,768.051C1634.673,766.852,1660.835,764.454,1673.916,763.255L1686.997,762.057" id="my-svg-L_SAFE_AM_0" class="edge-thickness-normal edge-pattern-solid edge-thickness-normal edge-pattern-solid flowchart-link" style=";" data-edge="true" data-et="edge" data-id="L_SAFE_AM_0" data-points="W3sieCI6MTQ5Mi41NTg1MDg2OTI1NjEsInkiOjc3OS4yNX0seyJ4IjoxNTI2LjA0MjQ2MTM5NTI2MzcsInkiOjc2OS4yNX0seyJ4IjoxNjA4LjUxMTIxMTM5NTI2MzcsInkiOjc2OS4yNX0seyJ4IjoxNjkwLjk3OTk2MTM5NTI2MzcsInkiOjc2MS42OTE0NDEwMzgyNjM2fV0=" data-look="classic" marker-end="url(#my-svg_flowchart-v2-pointEnd)"/><path d="M514.402,119.199L518.569,119.833C522.735,120.466,531.069,121.733,552.661,158.033C574.253,194.333,609.105,265.667,643.957,301.333C678.808,337,713.66,337,739.472,340.572C765.285,344.144,782.059,351.288,790.446,354.86L798.833,358.433" id="my-svg-L_AGENT_BE_0" class="edge-thickness-normal edge-pattern-solid edge-thickness-normal edge-pattern-solid flowchart-link" style=";" data-edge="true" data-et="edge" data-id="L_AGENT_BE_0" data-points="W3sieCI6NTE0LjQwMTgzNjM5NTI2MzcsInkiOjExOS4xOTkwOTUwMjI2MjQ0M30seyJ4Ijo1MzkuNDAxODM2Mzk1MjYzNywieSI6MTIzfSx7IngiOjY0My45NTY1MjM4OTUyNjM3LCJ5IjozMzd9LHsieCI6NzQ4LjUxMTIxMTM5NTI2MzcsInkiOjMzN30seyJ4Ijo4MDIuNTEzMTAxNTE2MjMxNSwieSI6MzYwfV0=" data-look="classic" marker-end="url(#my-svg_flowchart-v2-pointEnd)"/><path d="M514.402,102L518.569,102C522.735,102,531.069,102,552.661,127.833C574.253,153.667,609.105,205.333,643.957,231.167C678.808,257,713.66,257,748.206,273.701C782.753,290.402,816.995,323.805,834.117,340.506L851.238,357.207" id="my-svg-L_AGENT_BE_2" class="edge-thickness-normal edge-pattern-solid edge-thickness-normal edge-pattern-solid flowchart-link" style=";" data-edge="true" data-et="edge" data-id="L_AGENT_BE_2" data-points="W3sieCI6NTE0LjQwMTgzNjM5NTI2MzcsInkiOjEwMn0seyJ4Ijo1MzkuNDAxODM2Mzk1MjYzNywieSI6MTAyfSx7IngiOjY0My45NTY1MjM4OTUyNjM3LCJ5IjoyNTd9LHsieCI6NzQ4LjUxMTIxMTM5NTI2MzcsInkiOjI1N30seyJ4Ijo4NTQuMTAwOTQ1MTEwMDUyNCwieSI6MzYwfV0=" data-look="classic" marker-end="url(#my-svg_flowchart-v2-pointEnd)"/><path d="M514.402,85.62L518.569,85.017C522.735,84.413,531.069,83.207,552.661,82.603C574.253,82,609.105,82,643.957,82C678.808,82,713.66,82,755.347,82C797.035,82,845.558,82,894.082,82C942.605,82,991.128,82,1035.274,82C1079.42,82,1119.188,82,1158.957,82C1198.725,82,1238.493,82,1266.259,82C1294.024,82,1309.787,82,1317.669,82L1325.55,82" id="my-svg-L_AGENT_X402_0" class="edge-thickness-normal edge-pattern-solid edge-thickness-normal edge-pattern-solid flowchart-link" style=";" data-edge="true" data-et="edge" data-id="L_AGENT_X402_0" data-points="W3sieCI6NTE0LjQwMTgzNjM5NTI2MzcsInkiOjg1LjYxOTkwOTUwMjI2MjQ0fSx7IngiOjUzOS40MDE4MzYzOTUyNjM3LCJ5Ijo4Mn0seyJ4Ijo2NDMuOTU2NTIzODk1MjYzNywieSI6ODJ9LHsieCI6NzQ4LjUxMTIxMTM5NTI2MzcsInkiOjgyfSx7IngiOjg5NC4wODE1MjM4OTUyNjM3LCJ5Ijo4Mn0seyJ4IjoxMDM5LjY1MTgzNjM5NTI2MzcsInkiOjgyfSx7IngiOjExNTguOTU2NTIzODk1MjYzNywieSI6ODJ9LHsieCI6MTI3OC4yNjEyMTEzOTUyNjM3LCJ5Ijo4Mn0seyJ4IjoxMzI5LjU1MDI3Mzg5NTI2MzcsInkiOjgyfV0=" data-look="classic" marker-end="url(#my-svg_flowchart-v2-pointEnd)"/><path d="M986.613,427.604L995.453,430.337C1004.292,433.069,1021.972,438.535,1050.696,441.267C1079.42,444,1119.188,444,1158.957,444C1198.725,444,1238.493,444,1272.814,432.58C1307.135,421.161,1336.008,398.321,1350.445,386.901L1364.882,375.482" id="my-svg-L_BE_RPC_0" class="edge-thickness-normal edge-pattern-solid edge-thickness-normal edge-pattern-solid flowchart-link" style=";" data-edge="true" data-et="edge" data-id="L_BE_RPC_0" data-points="W3sieCI6OTg2LjYxMjc3Mzg5NTI2MzcsInkiOjQyNy42MDQwODk1MTg1OTZ9LHsieCI6MTAzOS42NTE4MzYzOTUyNjM3LCJ5Ijo0NDR9LHsieCI6MTE1OC45NTY1MjM4OTUyNjM3LCJ5Ijo0NDR9LHsieCI6MTI3OC4yNjEyMTEzOTUyNjM3LCJ5Ijo0NDR9LHsieCI6MTM2OC4wMTg3MDUwMTc3MTI2LCJ5IjozNzN9XQ==" data-look="classic" marker-end="url(#my-svg_flowchart-v2-pointEnd)"/><path d="M986.613,365.311L995.453,362.092C1004.292,358.874,1021.972,352.437,1050.696,349.218C1079.42,346,1119.188,346,1158.957,346C1198.725,346,1238.493,346,1266.834,346C1295.175,346,1312.089,346,1320.546,346L1329.003,346" id="my-svg-L_BE_RPC_2" class="edge-thickness-normal edge-pattern-solid edge-thickness-normal edge-pattern-solid flowchart-link" style=";" data-edge="true" data-et="edge" data-id="L_BE_RPC_2" data-points="W3sieCI6OTg2LjYxMjc3Mzg5NTI2MzcsInkiOjM2NS4zMTA3MzkwMTE0MzEzNH0seyJ4IjoxMDM5LjY1MTgzNjM5NTI2MzcsInkiOjM0Nn0seyJ4IjoxMTU4Ljk1NjUyMzg5NTI2MzcsInkiOjM0Nn0seyJ4IjoxMjc4LjI2MTIxMTM5NTI2MzcsInkiOjM0Nn0seyJ4IjoxMzMzLjAwMzM5ODg5NTI2MzcsInkiOjM0Nn1d" data-look="classic" marker-end="url(#my-svg_flowchart-v2-pointEnd)"/><path d="M1004.386,258L1010.264,258C1016.141,258,1027.897,258,1053.658,258C1079.42,258,1119.188,258,1158.957,258C1198.725,258,1238.493,258,1272.147,267.781C1305.8,277.561,1333.34,297.122,1347.109,306.903L1360.879,316.684" id="my-svg-L_RELAYER_RPC_0" class="edge-thickness-normal edge-pattern-solid edge-thickness-normal edge-pattern-solid flowchart-link" style=";" data-edge="true" data-et="edge" data-id="L_RELAYER_RPC_0" data-points="W3sieCI6MTAwNC4zODYyMTEzOTUyNjM3LCJ5IjoyNTh9LHsieCI6MTAzOS42NTE4MzYzOTUyNjM3LCJ5IjoyNTh9LHsieCI6MTE1OC45NTY1MjM4OTUyNjM3LCJ5IjoyNTh9LHsieCI6MTI3OC4yNjEyMTEzOTUyNjM3LCJ5IjoyNTh9LHsieCI6MTM2NC4xMzk5NDAwODg0NDU0LCJ5IjozMTl9XQ==" data-look="classic" marker-end="url(#my-svg_flowchart-v2-pointEnd)"/><path d="M1471.3,346L1480.424,346C1489.548,346,1507.795,346,1530.664,410.375C1553.532,474.75,1581.022,603.5,1607.849,669.449C1634.677,735.398,1660.843,738.545,1673.926,740.119L1687.009,741.693" id="my-svg-L_RPC_AM_0" class="edge-thickness-normal edge-pattern-solid edge-thickness-normal edge-pattern-solid flowchart-link" style=";" data-edge="true" data-et="edge" data-id="L_RPC_AM_0" data-points="W3sieCI6MTQ3MS4zMDAyNzM4OTUyNjM3LCJ5IjozNDZ9LHsieCI6MTUyNi4wNDI0NjEzOTUyNjM3LCJ5IjozNDZ9LHsieCI6MTYwOC41MTEyMTEzOTUyNjM3LCJ5Ijo3MzIuMjV9LHsieCI6MTY5MC45Nzk5NjEzOTUyNjM3LCJ5Ijo3NDIuMTcwNjA4NjM3Mjc5MX1d" data-look="classic" marker-end="url(#my-svg_flowchart-v2-pointEnd)"/><path d="M1875.183,753.25L1893.384,753.25C1911.584,753.25,1947.985,753.25,1983.731,756.569C2019.477,759.888,2054.568,766.525,2072.114,769.844L2089.659,773.163" id="my-svg-L_AM_ERC20_0" class="edge-thickness-normal edge-pattern-solid edge-thickness-normal edge-pattern-solid flowchart-link" style=";" data-edge="true" data-et="edge" data-id="L_AM_ERC20_0" data-points="W3sieCI6MTg3NS4xODMwODYzOTUyNjM3LCJ5Ijo3NTMuMjV9LHsieCI6MTk4NC4zODYyMTEzOTUyNjM3LCJ5Ijo3NTMuMjV9LHsieCI6MjA5My41ODkzMzYzOTUyNjM3LCJ5Ijo3NzMuOTA2MDQyODE0OTIxM31d" data-look="classic" marker-end="url(#my-svg_flowchart-v2-pointEnd)"/></g><g class="edgeLabels"><g class="edgeLabel" transform="translate(176.33933639526367, 664.25)"><g class="label" data-id="L_U_WEB_0" transform="translate(-61.8125, -24)"><foreignObject width="123.625" height="48"><div xmlns="http://www.w3.org/1999/xhtml" class="labelBkg" style="display: table-cell; white-space: nowrap; line-height: 1.5; max-width: 200px; text-align: center;"><span class="edgeLabel"><p>email + password<br />JWT 7d</p></span></div></foreignObject></g></g><g class="edgeLabel" transform="translate(643.9565238952637, 521)"><g class="label" data-id="L_WEB_BE_0" transform="translate(-41.578125, -12)"><foreignObject width="83.15625" height="24"><div xmlns="http://www.w3.org/1999/xhtml" class="labelBkg" style="display: table-cell; white-space: nowrap; line-height: 1.5; max-width: 200px; text-align: center;"><span class="edgeLabel"><p>REST + JWT</p></span></div></foreignObject></g></g><g class="edgeLabel" transform="translate(176.33933639526367, 720.25)"><g class="label" data-id="L_U_WALLET_0" transform="translate(-28.796875, -12)"><foreignObject width="57.59375" height="24"><div xmlns="http://www.w3.org/1999/xhtml" class="labelBkg" style="display: table-cell; white-space: nowrap; line-height: 1.5; max-width: 200px; text-align: center;"><span class="edgeLabel"><p>controls</p></span></div></foreignObject></g></g><g class="edgeLabel" transform="translate(643.9565238952637, 441)"><g class="label" data-id="L_WALLET_BE_0" transform="translate(-55.953125, -48)"><foreignObject width="111.90625" height="96"><div xmlns="http://www.w3.org/1999/xhtml" class="labelBkg" style="display: table-cell; white-space: nowrap; line-height: 1.5; max-width: 200px; text-align: center;"><span class="edgeLabel"><p>signs SafeTx:<br />enable module,<br />set allowance,<br />manual send</p></span></div></foreignObject></g></g><g class="edgeLabel" transform="translate(401.2768363952637, 806.25)"><g class="label" data-id="L_U_OWNERS_0" transform="translate(-71.2890625, -12)"><foreignObject width="142.578125" height="24"><div xmlns="http://www.w3.org/1999/xhtml" class="labelBkg" style="display: table-cell; white-space: nowrap; line-height: 1.5; max-width: 200px; text-align: center;"><span class="edgeLabel"><p>controls owner keys</p></span></div></foreignObject></g></g><g class="edgeLabel" transform="translate(1158.9565238952637, 806.25)"><g class="label" data-id="L_OWNERS_SAFE_0" transform="translate(-34.9921875, -12)"><foreignObject width="69.984375" height="24"><div xmlns="http://www.w3.org/1999/xhtml" class="labelBkg" style="display: table-cell; white-space: nowrap; line-height: 1.5; max-width: 200px; text-align: center;"><span class="edgeLabel"><p>owners of</p></span></div></foreignObject></g></g><g class="edgeLabel" transform="translate(1783.0815238952637, 827.25)"><g class="label" data-id="L_SAFE_ERC20_0" transform="translate(-18.71875, -12)"><foreignObject width="37.4375" height="24"><div xmlns="http://www.w3.org/1999/xhtml" class="labelBkg" style="display: table-cell; white-space: nowrap; line-height: 1.5; max-width: 200px; text-align: center;"><span class="edgeLabel"><p>holds</p></span></div></foreignObject></g></g><g class="edgeLabel" transform="translate(1608.5112113952637, 769.25)"><g class="label" data-id="L_SAFE_AM_0" transform="translate(-57.46875, -12)"><foreignObject width="114.9375" height="24"><div xmlns="http://www.w3.org/1999/xhtml" class="labelBkg" style="display: table-cell; white-space: nowrap; line-height: 1.5; max-width: 200px; text-align: center;"><span class="edgeLabel"><p>module enabled</p></span></div></foreignObject></g></g><g class="edgeLabel" transform="translate(643.9565238952637, 337)"><g class="label" data-id="L_AGENT_BE_0" transform="translate(-79.5546875, -36)"><foreignObject width="159.109375" height="72"><div xmlns="http://www.w3.org/1999/xhtml" class="labelBkg" style="display: table-cell; white-space: nowrap; line-height: 1.5; max-width: 200px; text-align: center;"><span class="edgeLabel"><p>POST /payments<br />POST /x402/authorize<br />Bearer sk_agent_*</p></span></div></foreignObject></g></g><g class="edgeLabel" transform="translate(643.9565238952637, 257)"><g class="label" data-id="L_AGENT_BE_2" transform="translate(-64.2421875, -24)"><foreignObject width="128.484375" height="48"><div xmlns="http://www.w3.org/1999/xhtml" class="labelBkg" style="display: table-cell; white-space: nowrap; line-height: 1.5; max-width: 200px; text-align: center;"><span class="edgeLabel"><p>signs sign_hash<br />with delegate key</p></span></div></foreignObject></g></g><g class="edgeLabel" transform="translate(894.0815238952637, 82)"><g class="label" data-id="L_AGENT_X402_0" transform="translate(-70.6171875, -12)"><foreignObject width="141.234375" height="24"><div xmlns="http://www.w3.org/1999/xhtml" class="labelBkg" style="display: table-cell; white-space: nowrap; line-height: 1.5; max-width: 200px; text-align: center;"><span class="edgeLabel"><p>HTTP 402 challenge</p></span></div></foreignObject></g></g><g class="edgeLabel" transform="translate(1158.9565238952637, 444)"><g class="label" data-id="L_BE_RPC_0" transform="translate(-60.7890625, -24)"><foreignObject width="121.578125" height="48"><div xmlns="http://www.w3.org/1999/xhtml" class="labelBkg" style="display: table-cell; white-space: nowrap; line-height: 1.5; max-width: 200px; text-align: center;"><span class="edgeLabel"><p>reads allowance,<br />builds sign_hash</p></span></div></foreignObject></g></g><g class="edgeLabel" transform="translate(1158.9565238952637, 346)"><g class="label" data-id="L_BE_RPC_2" transform="translate(-81.296875, -24)"><foreignObject width="162.59375" height="48"><div xmlns="http://www.w3.org/1999/xhtml" class="labelBkg" style="display: table-cell; white-space: nowrap; line-height: 1.5; max-width: 200px; text-align: center;"><span class="edgeLabel"><p>relays execTransaction<br />for manual sends</p></span></div></foreignObject></g></g><g class="edgeLabel" transform="translate(1158.9565238952637, 258)"><g class="label" data-id="L_RELAYER_RPC_0" transform="translate(-94.3046875, -24)"><foreignObject width="188.609375" height="48"><div xmlns="http://www.w3.org/1999/xhtml" class="labelBkg" style="display: table-cell; white-space: nowrap; line-height: 1.5; max-width: 200px; text-align: center;"><span class="edgeLabel"><p>signs + pays gas for<br />executeAllowanceTransfer</p></span></div></foreignObject></g></g><g class="edgeLabel"><g class="label" data-id="L_RPC_AM_0" transform="translate(0, 0)"><foreignObject width="0" height="0"><div xmlns="http://www.w3.org/1999/xhtml" class="labelBkg" style="display: table-cell; white-space: nowrap; line-height: 1.5; max-width: 200px; text-align: center;"><span class="edgeLabel"></span></div></foreignObject></g></g><g class="edgeLabel" transform="translate(1984.3862113952637, 753.25)"><g class="label" data-id="L_AM_ERC20_0" transform="translate(-84.203125, -12)"><foreignObject width="168.40625" height="24"><div xmlns="http://www.w3.org/1999/xhtml" class="labelBkg" style="display: table-cell; white-space: nowrap; line-height: 1.5; max-width: 200px; text-align: center;"><span class="edgeLabel"><p>spend within allowance</p></span></div></foreignObject></g></g></g><g class="nodes"><g class="node default userCustody" id="my-svg-flowchart-U-0" data-look="classic" transform="translate(61.263418197631836, 735.25)"><g class="basic label-container outer-path"><path d="M-8.7734375 -19.5 C-1.7972344467507773 -19.5, 5.1789686064984455 -19.5, 8.7734375 -19.5 C8.7734375 -19.5, 8.773437499999998 -19.5, 8.773437499999998 -19.5 C9.057010636377646 -19.490906361457995, 9.340583772755295 -19.48181272291599, 10.0228067896239 -19.45993515863156 C10.276084996398513 -19.43550171463562, 10.529363203173125 -19.411068270639685, 11.267042152847864 -19.3399052695533 C11.63036684465415 -19.281165751007126, 11.993691536460435 -19.22242623246095, 12.501030759676757 -19.140403561325776 C12.762323450123677 -19.080765209825422, 13.023616140570597 -19.021126858325065, 13.71970188623539 -18.862249829261074 C14.042519518748325 -18.766439250435567, 14.36533715126126 -18.67062867161006, 14.918047751460602 -18.50658706670804 C15.255994675556664 -18.382219474693567, 15.593941599652728 -18.257851882679095, 16.091144095147794 -18.074876768247425 C16.344012174240294 -17.962939570698225, 16.5968802533328 -17.85100237314903, 17.23417041279238 -17.568892924097174 C17.604930073352243 -17.37546784666599, 17.97568973391211 -17.18204276923481, 18.342429764076783 -16.990714730406097 C18.56340748810504 -16.85675673549092, 18.784385212133294 -16.72279874057574, 19.411368073605697 -16.342718045390892 C19.687141395709613 -16.150350513925908, 19.96291471781353 -15.957982982460923, 20.436592844578712 -15.627565626425154 C20.822740897877015 -15.319622829751014, 21.208888951175318 -15.011680033076871, 21.41389120850187 -14.848196188198123 C21.642279995882067 -14.640779534335605, 21.870668783262264 -14.433362880473087, 22.339247236767985 -14.007812326905688 C22.586863542365034 -13.752128161699964, 22.834479847962083 -13.496443996494241, 23.208858442968648 -13.10986736009568 C23.484279407060757 -12.78634222377627, 23.759700371152864 -12.462817087456859, 24.019151408126582 -12.158051136245305 C24.246339391184208 -11.853639936199126, 24.473527374241833 -11.549228736152946, 24.766796464640635 -11.156274872382312 C25.0388719405522 -10.738293878887157, 25.31094741646376 -10.320312885392003, 25.448721378604247 -10.108655082055241 C25.575556745886388 -9.883446043972166, 25.70239211316853 -9.658237005889088, 26.0621239742735 -9.019496659696287 C26.2502422908151 -8.628864950310492, 26.438360607356696 -8.238233240924698, 26.60448364880834 -7.893275190886684 C26.74954541192376 -7.534969831413205, 26.894607175039177 -7.176664471939726, 27.073571729970325 -6.734618561215508 C27.188210011131048 -6.3893463234890655, 27.302848292291767 -6.044074085762624, 27.46746063421488 -5.548287939305138 C27.537658108559697 -5.280594545850518, 27.607855582904516 -5.012901152395899, 27.78453178754556 -4.339158212148133 C27.86092724334906 -3.9468836927824658, 27.93732269915256 -3.5546091734167984, 28.023482276581777 -3.1121979531509023 C28.076180245006853 -2.703482916436916, 28.128878213431932 -2.2947678797229294, 28.183330202509367 -1.872449005199798 C28.208648195418462 -1.478100829324601, 28.233966188327557 -1.083752653449404, 28.263418715913414 -0.6250057626472757 C28.263418715913414 -0.13594059685985882, 28.263418715913414 0.35312456892755806, 28.263418715913414 0.625005762647271 C28.24495857749515 0.9125373192672317, 28.22649843907689 1.2000688758871925, 28.183330202509367 1.8724490051997846 C28.14516929548661 2.1684174643448415, 28.107008388463854 2.464385923489899, 28.023482276581777 3.1121979531508885 C27.951566908158924 3.4814681706837503, 27.87965153973607 3.8507383882166115, 27.78453178754556 4.339158212148129 C27.658152126399585 4.821098633389346, 27.531772465253614 5.303039054630564, 27.467460634214884 5.548287939305125 C27.379314136116413 5.81377114734049, 27.291167638017946 6.079254355375855, 27.07357172997033 6.734618561215495 C26.973059576838967 6.982885522720243, 26.872547423707605 7.231152484224991, 26.604483648808344 7.893275190886679 C26.443838001890803 8.226859313977155, 26.283192354973266 8.56044343706763, 26.062123974273504 9.019496659696284 C25.839592490855768 9.414623842260646, 25.617061007438032 9.80975102482501, 25.44872137860425 10.108655082055236 C25.17742204789059 10.525443708102243, 24.906122717176935 10.942232334149251, 24.76679646464064 11.156274872382301 C24.48684057718739 11.531390257063633, 24.206884689734142 11.906505641744964, 24.019151408126582 12.158051136245302 C23.716670861257793 12.513361998228085, 23.414190314389 12.868672860210868, 23.20885844296866 13.10986736009567 C23.02243926853454 13.302360462997758, 22.836020094100423 13.494853565899845, 22.33924723676799 14.007812326905684 C22.144484122257552 14.184691034354437, 21.94972100774712 14.361569741803189, 21.413891208501887 14.848196188198111 C21.065964959983283 15.125658112685384, 20.71803871146468 15.403120037172657, 20.436592844578715 15.627565626425152 C20.176368467495855 15.809086886946432, 19.916144090412995 15.990608147467709, 19.411368073605708 16.34271804539089 C19.07693370177517 16.545454126949082, 18.742499329944632 16.74819020850727, 18.342429764076787 16.990714730406093 C18.049091158497212 17.143749293044614, 17.75575255291764 17.29678385568313, 17.234170412792388 17.56889292409717 C16.88207345003939 17.72475580492262, 16.52997648728639 17.88061868574807, 16.091144095147804 18.07487676824742 C15.71124892874073 18.214681701197648, 15.331353762333654 18.35448663414787, 14.918047751460616 18.506587066708033 C14.664962680487069 18.581701387302335, 14.411877609513521 18.65681570789664, 13.719701886235413 18.86224982926107 C13.401042028565115 18.93498186232441, 13.08238217089482 19.00771389538775, 12.501030759676766 19.140403561325773 C12.156364011316088 19.196126608270173, 11.811697262955407 19.251849655214574, 11.267042152847878 19.3399052695533 C10.820802825544764 19.38295344077692, 10.374563498241649 19.42600161200054, 10.0228067896239 19.45993515863156 C9.560487554064386 19.47476083666615, 9.098168318504872 19.489586514700743, 8.773437500000004 19.5 C8.773437500000004 19.5, 8.773437500000002 19.5, 8.7734375 19.5 C4.303712920898725 19.5, -0.16601165820254948 19.5, -8.773437499999996 19.5 C-9.125828944489717 19.48869949226355, -9.478220388979437 19.477398984527102, -10.022806789623893 19.45993515863156 C-10.512183137462111 19.412725610916773, -11.001559485300332 19.365516063201987, -11.267042152847871 19.3399052695533 C-11.57617298893667 19.2899273933199, -11.885303825025467 19.2399495170865, -12.501030759676759 19.140403561325773 C-12.93697935653178 19.040901138924074, -13.372927953386798 18.94139871652237, -13.719701886235388 18.862249829261074 C-14.06290899929419 18.76038775963612, -14.406116112352993 18.658525690011167, -14.918047751460593 18.506587066708043 C-15.299907322689474 18.366059214624634, -15.681766893918356 18.225531362541222, -16.091144095147797 18.074876768247425 C-16.351787494923293 17.95949766687856, -16.61243089469879 17.844118565509692, -17.23417041279238 17.568892924097174 C-17.505548601995063 17.42731509661616, -17.77692679119775 17.285737269135147, -18.34242976407678 16.990714730406097 C-18.685652941203188 16.782650823428796, -19.028876118329592 16.574586916451498, -19.411368073605686 16.3427180453909 C-19.6304251702539 16.189913297597982, -19.84948226690212 16.037108549805065, -20.436592844578712 15.627565626425156 C-20.791145276215968 15.344819497230898, -21.14569770785322 15.06207336803664, -21.41389120850187 14.848196188198125 C-21.616660678731062 14.664046320322162, -21.819430148960254 14.479896452446201, -22.339247236767974 14.007812326905697 C-22.53133381127314 13.809467168128053, -22.723420385778308 13.61112200935041, -23.208858442968655 13.109867360095677 C-23.481519197594828 12.789584522875321, -23.754179952220998 12.469301685654965, -24.01915140812658 12.158051136245307 C-24.216699742655557 11.893354364999988, -24.414248077184535 11.628657593754667, -24.766796464640635 11.156274872382316 C-24.99080368139639 10.812139633085373, -25.214810898152145 10.46800439378843, -25.448721378604244 10.108655082055249 C-25.589676640640825 9.858374741041281, -25.730631902677402 9.608094400027314, -26.0621239742735 9.019496659696289 C-26.255183720726237 8.618603965370355, -26.448243467178973 8.217711271044418, -26.60448364880834 7.893275190886686 C-26.735333272092504 7.570074091569442, -26.866182895376664 7.2468729922521975, -27.073571729970325 6.73461856121551 C-27.21322430636899 6.314007251719086, -27.352876882767653 5.893395942222661, -27.46746063421488 5.5482879393051325 C-27.571164191058088 5.152821331656141, -27.674867747901292 4.757354724007149, -27.784531787545557 4.339158212148136 C-27.832810206567256 4.0912587341191875, -27.881088625588955 3.8433592560902397, -28.023482276581777 3.112197953150904 C-28.080400498915537 2.670751460504556, -28.137318721249297 2.2293049678582073, -28.183330202509364 1.872449005199809 C-28.211043651556515 1.4407896663970032, -28.238757100603664 1.0091303275941974, -28.263418715913414 0.6250057626472781 C-28.263418715913414 0.35586063173262866, -28.263418715913414 0.08671550081797919, -28.263418715913414 -0.6250057626472687 C-28.242971380421416 -0.9434895177272549, -28.222524044929422 -1.261973272807241, -28.183330202509367 -1.8724490051997822 C-28.13979866484867 -2.2100710150217466, -28.09626712718797 -2.5476930248437113, -28.023482276581777 -3.112197953150895 C-27.969262965667557 -3.3906026554400004, -27.915043654753337 -3.6690073577291056, -27.78453178754556 -4.339158212148126 C-27.7049263762359 -4.642728146675374, -27.625320964926235 -4.946298081202622, -27.467460634214884 -5.548287939305123 C-27.353793040096484 -5.890636622318076, -27.240125445978084 -6.232985305331028, -27.073571729970332 -6.734618561215485 C-26.92645941277439 -7.097988828912634, -26.77934709557844 -7.461359096609783, -26.604483648808344 -7.893275190886676 C-26.478184313690537 -8.155538462631666, -26.351884978572727 -8.417801734376656, -26.062123974273504 -9.019496659696282 C-25.873566122423256 -9.354300219209332, -25.685008270573007 -9.689103778722382, -25.448721378604247 -10.108655082055243 C-25.247790034501353 -10.417339584217963, -25.046858690398455 -10.726024086380683, -24.76679646464064 -11.156274872382308 C-24.469935140803468 -11.55404200170116, -24.173073816966294 -11.951809131020012, -24.019151408126586 -12.158051136245302 C-23.777507540530564 -12.441899773049174, -23.53586367293454 -12.725748409853047, -23.208858442968662 -13.10986736009567 C-22.970880627629665 -13.355598992775187, -22.732902812290668 -13.601330625454702, -22.339247236767996 -14.007812326905677 C-22.126985384163827 -14.200582925299917, -21.91472353155966 -14.39335352369416, -21.413891208501887 -14.848196188198107 C-21.149630471389987 -15.058937093771297, -20.88536973427809 -15.269677999344486, -20.43659284457872 -15.627565626425149 C-20.19694943290335 -15.794730496413797, -19.957306021227975 -15.961895366402445, -19.41136807360571 -16.342718045390885 C-19.027722309895 -16.575286361905075, -18.64407654618429 -16.807854678419268, -18.34242976407679 -16.99071473040609 C-18.005933949721328 -17.166264381219477, -17.66943813536587 -17.341814032032868, -17.234170412792388 -17.56889292409717 C-16.90091547554983 -17.716414999157976, -16.56766053830727 -17.863937074218782, -16.091144095147804 -18.07487676824742 C-15.622187793368282 -18.247457022286817, -15.153231491588757 -18.420037276326216, -14.918047751460618 -18.506587066708033 C-14.515201045249832 -18.62614985452588, -14.112354339039046 -18.745712642343733, -13.719701886235413 -18.862249829261067 C-13.33530859591928 -18.949985089375083, -12.950915305603148 -19.0377203494891, -12.501030759676768 -19.140403561325773 C-12.037206477076536 -19.215391074325545, -11.573382194476306 -19.290378587325318, -11.26704215284788 -19.3399052695533 C-10.886152274248454 -19.376649258054687, -10.50526239564903 -19.413393246556073, -10.022806789623903 -19.45993515863156 C-9.746313576782061 -19.468801757806006, -9.469820363940217 -19.477668356980455, -8.773437500000005 -19.5 C-8.773437500000004 -19.5, -8.773437500000002 -19.5, -8.7734375 -19.5" stroke="none" stroke-width="0" fill="#dbeafe" style="fill:#dbeafe !important;stroke:#1d4ed8 !important"/><path d="M-8.7734375 -19.5 C-2.3320400630304867 -19.5, 4.109357373939027 -19.5, 8.7734375 -19.5 M-8.7734375 -19.5 C-1.9253807049824188 -19.5, 4.9226760900351625 -19.5, 8.7734375 -19.5 M8.7734375 -19.5 C8.7734375 -19.5, 8.773437499999998 -19.5, 8.773437499999998 -19.5 M8.7734375 -19.5 C8.7734375 -19.5, 8.773437499999998 -19.5, 8.773437499999998 -19.5 M8.773437499999998 -19.5 C9.25361161541518 -19.484601750720852, 9.73378573083036 -19.469203501441704, 10.0228067896239 -19.45993515863156 M8.773437499999998 -19.5 C9.190149218856183 -19.486636866256436, 9.606860937712367 -19.473273732512876, 10.0228067896239 -19.45993515863156 M10.0228067896239 -19.45993515863156 C10.33080777400679 -19.43022267409352, 10.638808758389677 -19.400510189555483, 11.267042152847864 -19.3399052695533 M10.0228067896239 -19.45993515863156 C10.480997111115348 -19.415734089371764, 10.939187432606799 -19.371533020111965, 11.267042152847864 -19.3399052695533 M11.267042152847864 -19.3399052695533 C11.714088584378635 -19.26763026940026, 12.161135015909407 -19.19535526924722, 12.501030759676757 -19.140403561325776 M11.267042152847864 -19.3399052695533 C11.608048613580152 -19.284773989526702, 11.94905507431244 -19.229642709500105, 12.501030759676757 -19.140403561325776 M12.501030759676757 -19.140403561325776 C12.865638335634781 -19.057184261400145, 13.230245911592803 -18.973964961474515, 13.71970188623539 -18.862249829261074 M12.501030759676757 -19.140403561325776 C12.878060967741199 -19.054348876687108, 13.25509117580564 -18.968294192048436, 13.71970188623539 -18.862249829261074 M13.71970188623539 -18.862249829261074 C14.152697628048623 -18.733738965931938, 14.585693369861856 -18.605228102602798, 14.918047751460602 -18.50658706670804 M13.71970188623539 -18.862249829261074 C14.031286883949164 -18.769773037482654, 14.342871881662939 -18.677296245704234, 14.918047751460602 -18.50658706670804 M14.918047751460602 -18.50658706670804 C15.275369729560463 -18.375089275719134, 15.632691707660326 -18.243591484730228, 16.091144095147794 -18.074876768247425 M14.918047751460602 -18.50658706670804 C15.278546056608553 -18.37392035800379, 15.639044361756502 -18.241253649299544, 16.091144095147794 -18.074876768247425 M16.091144095147794 -18.074876768247425 C16.526133432003753 -17.882319892321508, 16.96112276885971 -17.68976301639559, 17.23417041279238 -17.568892924097174 M16.091144095147794 -18.074876768247425 C16.35137813785578 -17.959678877109198, 16.611612180563768 -17.844480985970975, 17.23417041279238 -17.568892924097174 M17.23417041279238 -17.568892924097174 C17.52137327456618 -17.419059375071996, 17.808576136339983 -17.269225826046817, 18.342429764076783 -16.990714730406097 M17.23417041279238 -17.568892924097174 C17.531678605703632 -17.413683090418466, 17.829186798614884 -17.25847325673976, 18.342429764076783 -16.990714730406097 M18.342429764076783 -16.990714730406097 C18.598950885613448 -16.835210119045133, 18.85547200715011 -16.67970550768417, 19.411368073605697 -16.342718045390892 M18.342429764076783 -16.990714730406097 C18.578932767825442 -16.84734521968774, 18.815435771574098 -16.70397570896938, 19.411368073605697 -16.342718045390892 M19.411368073605697 -16.342718045390892 C19.802725775672496 -16.069723854030965, 20.194083477739294 -15.796729662671039, 20.436592844578712 -15.627565626425154 M19.411368073605697 -16.342718045390892 C19.679377323722157 -16.1557663944431, 19.947386573838617 -15.968814743495301, 20.436592844578712 -15.627565626425154 M20.436592844578712 -15.627565626425154 C20.65302114356153 -15.45496981738527, 20.86944944254435 -15.282374008345387, 21.41389120850187 -14.848196188198123 M20.436592844578712 -15.627565626425154 C20.75796893269427 -15.371276748329871, 21.079345020809825 -15.114987870234588, 21.41389120850187 -14.848196188198123 M21.41389120850187 -14.848196188198123 C21.780414884831877 -14.51532908304027, 22.146938561161885 -14.182461977882417, 22.339247236767985 -14.007812326905688 M21.41389120850187 -14.848196188198123 C21.769067758455655 -14.525634242986644, 22.124244308409438 -14.203072297775165, 22.339247236767985 -14.007812326905688 M22.339247236767985 -14.007812326905688 C22.655431420629412 -13.681326197864491, 22.971615604490843 -13.354840068823297, 23.208858442968648 -13.10986736009568 M22.339247236767985 -14.007812326905688 C22.565146403490047 -13.77455289059865, 22.791045570212106 -13.541293454291614, 23.208858442968648 -13.10986736009568 M23.208858442968648 -13.10986736009568 C23.49328072925105 -12.775768758541808, 23.77770301553345 -12.441670156987938, 24.019151408126582 -12.158051136245305 M23.208858442968648 -13.10986736009568 C23.389557540987408 -12.897607917492893, 23.570256639006164 -12.685348474890105, 24.019151408126582 -12.158051136245305 M24.019151408126582 -12.158051136245305 C24.20053620599744 -11.91501203159338, 24.3819210038683 -11.671972926941454, 24.766796464640635 -11.156274872382312 M24.019151408126582 -12.158051136245305 C24.305008298598946 -11.775028945110796, 24.59086518907131 -11.392006753976286, 24.766796464640635 -11.156274872382312 M24.766796464640635 -11.156274872382312 C24.95865973937236 -10.861521359891285, 25.15052301410409 -10.566767847400255, 25.448721378604247 -10.108655082055241 M24.766796464640635 -11.156274872382312 C24.98814209742232 -10.81622854080491, 25.209487730204003 -10.47618220922751, 25.448721378604247 -10.108655082055241 M25.448721378604247 -10.108655082055241 C25.606219370997557 -9.829001448159806, 25.763717363390867 -9.54934781426437, 26.0621239742735 -9.019496659696287 M25.448721378604247 -10.108655082055241 C25.60217630689499 -9.83618031787855, 25.755631235185728 -9.563705553701858, 26.0621239742735 -9.019496659696287 M26.0621239742735 -9.019496659696287 C26.193568237794146 -8.746549834038973, 26.32501250131479 -8.47360300838166, 26.60448364880834 -7.893275190886684 M26.0621239742735 -9.019496659696287 C26.246356815873703 -8.636933222162142, 26.43058965747391 -8.254369784627997, 26.60448364880834 -7.893275190886684 M26.60448364880834 -7.893275190886684 C26.719608919837576 -7.608913545648779, 26.83473419086681 -7.324551900410874, 27.073571729970325 -6.734618561215508 M26.60448364880834 -7.893275190886684 C26.728407713598923 -7.587180354945146, 26.852331778389505 -7.281085519003608, 27.073571729970325 -6.734618561215508 M27.073571729970325 -6.734618561215508 C27.187470462355073 -6.391573726571206, 27.301369194739816 -6.048528891926904, 27.46746063421488 -5.548287939305138 M27.073571729970325 -6.734618561215508 C27.169686558190214 -6.445136012435424, 27.2658013864101 -6.15565346365534, 27.46746063421488 -5.548287939305138 M27.46746063421488 -5.548287939305138 C27.55658589044887 -5.208414710154544, 27.64571114668286 -4.868541481003951, 27.78453178754556 -4.339158212148133 M27.46746063421488 -5.548287939305138 C27.548517452944363 -5.2391831592421605, 27.629574271673846 -4.930078379179184, 27.78453178754556 -4.339158212148133 M27.78453178754556 -4.339158212148133 C27.856574035180767 -3.969236496675788, 27.92861628281597 -3.5993147812034425, 28.023482276581777 -3.1121979531509023 M27.78453178754556 -4.339158212148133 C27.8546434008336 -3.9791498960087814, 27.924755014121633 -3.6191415798694297, 28.023482276581777 -3.1121979531509023 M28.023482276581777 -3.1121979531509023 C28.074814524602324 -2.7140751742024523, 28.12614677262287 -2.315952395254002, 28.183330202509367 -1.872449005199798 M28.023482276581777 -3.1121979531509023 C28.06649209353697 -2.7786223060954405, 28.109501910492163 -2.4450466590399786, 28.183330202509367 -1.872449005199798 M28.183330202509367 -1.872449005199798 C28.21316377904858 -1.407766969372038, 28.242997355587786 -0.943084933544278, 28.263418715913414 -0.6250057626472757 M28.183330202509367 -1.872449005199798 C28.208225309992955 -1.4846876111738285, 28.23312041747654 -1.096926217147859, 28.263418715913414 -0.6250057626472757 M28.263418715913414 -0.6250057626472757 C28.263418715913414 -0.35105287196871104, 28.263418715913414 -0.07709998129014639, 28.263418715913414 0.625005762647271 M28.263418715913414 -0.6250057626472757 C28.263418715913414 -0.15461095521379192, 28.263418715913414 0.31578385221969185, 28.263418715913414 0.625005762647271 M28.263418715913414 0.625005762647271 C28.245228202751424 0.9083376882632062, 28.227037689589434 1.1916696138791414, 28.183330202509367 1.8724490051997846 M28.263418715913414 0.625005762647271 C28.244004840521853 0.9273925424689723, 28.224590965130297 1.2297793222906734, 28.183330202509367 1.8724490051997846 M28.183330202509367 1.8724490051997846 C28.142900451640276 2.18601416918311, 28.10247070077119 2.4995793331664355, 28.023482276581777 3.1121979531508885 M28.183330202509367 1.8724490051997846 C28.143592639298216 2.180645698396057, 28.103855076087065 2.4888423915923292, 28.023482276581777 3.1121979531508885 M28.023482276581777 3.1121979531508885 C27.962823742817775 3.4236667038433914, 27.902165209053774 3.735135454535894, 27.78453178754556 4.339158212148129 M28.023482276581777 3.1121979531508885 C27.97469383199098 3.362716304683216, 27.925905387400185 3.6132346562155435, 27.78453178754556 4.339158212148129 M27.78453178754556 4.339158212148129 C27.6713470286696 4.7707807523269645, 27.55816226979364 5.2024032925058, 27.467460634214884 5.548287939305125 M27.78453178754556 4.339158212148129 C27.704976932683483 4.642535353029431, 27.62542207782141 4.9459124939107335, 27.467460634214884 5.548287939305125 M27.467460634214884 5.548287939305125 C27.384420985619066 5.798390130304474, 27.301381337023248 6.048492321303823, 27.07357172997033 6.734618561215495 M27.467460634214884 5.548287939305125 C27.319481295471537 5.993978130294321, 27.17150195672819 6.439668321283517, 27.07357172997033 6.734618561215495 M27.07357172997033 6.734618561215495 C26.945651307147116 7.050584478761961, 26.8177308843239 7.366550396308428, 26.604483648808344 7.893275190886679 M27.07357172997033 6.734618561215495 C26.895687729846703 7.173995480674035, 26.717803729723073 7.613372400132576, 26.604483648808344 7.893275190886679 M26.604483648808344 7.893275190886679 C26.38853961859063 8.341687590095825, 26.172595588372918 8.79009998930497, 26.062123974273504 9.019496659696284 M26.604483648808344 7.893275190886679 C26.46330578202175 8.18643405199148, 26.322127915235157 8.479592913096281, 26.062123974273504 9.019496659696284 M26.062123974273504 9.019496659696284 C25.89455152631141 9.317038509603343, 25.726979078349316 9.6145803595104, 25.44872137860425 10.108655082055236 M26.062123974273504 9.019496659696284 C25.870275560057426 9.360142945895433, 25.67842714584135 9.700789232094582, 25.44872137860425 10.108655082055236 M25.44872137860425 10.108655082055236 C25.23318908441695 10.43977056445168, 25.017656790229648 10.770886046848121, 24.76679646464064 11.156274872382301 M25.44872137860425 10.108655082055236 C25.21580409938545 10.466478569982195, 24.98288682016665 10.824302057909154, 24.76679646464064 11.156274872382301 M24.76679646464064 11.156274872382301 C24.589290652033252 11.394116490164006, 24.41178483942586 11.631958107945712, 24.019151408126582 12.158051136245302 M24.76679646464064 11.156274872382301 C24.5878435572693 11.396055465314658, 24.408890649897952 11.635836058247016, 24.019151408126582 12.158051136245302 M24.019151408126582 12.158051136245302 C23.851845589497287 12.35457807077804, 23.684539770867993 12.551105005310779, 23.20885844296866 13.10986736009567 M24.019151408126582 12.158051136245302 C23.778790385477656 12.440392870378371, 23.53842936282873 12.72273460451144, 23.20885844296866 13.10986736009567 M23.20885844296866 13.10986736009567 C22.956324990845037 13.370628882795318, 22.703791538721415 13.631390405494967, 22.33924723676799 14.007812326905684 M23.20885844296866 13.10986736009567 C22.881816535387436 13.447564980313249, 22.554774627806214 13.785262600530828, 22.33924723676799 14.007812326905684 M22.33924723676799 14.007812326905684 C22.045957418898908 14.27417037947104, 21.752667601029827 14.540528432036394, 21.413891208501887 14.848196188198111 M22.33924723676799 14.007812326905684 C22.14331016324421 14.1857571928691, 21.94737308972043 14.36370205883252, 21.413891208501887 14.848196188198111 M21.413891208501887 14.848196188198111 C21.199337294611343 15.019297225006387, 20.9847833807208 15.19039826181466, 20.436592844578715 15.627565626425152 M21.413891208501887 14.848196188198111 C21.0776642673905 15.116328226359775, 20.741437326279108 15.384460264521438, 20.436592844578715 15.627565626425152 M20.436592844578715 15.627565626425152 C20.14608766176711 15.830209466187853, 19.8555824789555 16.032853305950553, 19.411368073605708 16.34271804539089 M20.436592844578715 15.627565626425152 C20.18586144305865 15.802464998138115, 19.93513004153858 15.97736436985108, 19.411368073605708 16.34271804539089 M19.411368073605708 16.34271804539089 C19.02178248949504 16.578887115937793, 18.632196905384372 16.8150561864847, 18.342429764076787 16.990714730406093 M19.411368073605708 16.34271804539089 C19.04287376525279 16.56610146062735, 18.67437945689987 16.789484875863817, 18.342429764076787 16.990714730406093 M18.342429764076787 16.990714730406093 C17.933368625185096 17.204121664549724, 17.524307486293406 17.417528598693355, 17.234170412792388 17.56889292409717 M18.342429764076787 16.990714730406093 C18.0923825644446 17.12116419429133, 17.842335364812406 17.25161365817657, 17.234170412792388 17.56889292409717 M17.234170412792388 17.56889292409717 C16.94497246722965 17.69691227584554, 16.655774521666913 17.824931627593916, 16.091144095147804 18.07487676824742 M17.234170412792388 17.56889292409717 C16.98833359829513 17.677717589385107, 16.742496783797876 17.78654225467304, 16.091144095147804 18.07487676824742 M16.091144095147804 18.07487676824742 C15.740136116427763 18.204050949098583, 15.389128137707722 18.333225129949742, 14.918047751460616 18.506587066708033 M16.091144095147804 18.07487676824742 C15.757156009540166 18.19778747110305, 15.42316792393253 18.32069817395868, 14.918047751460616 18.506587066708033 M14.918047751460616 18.506587066708033 C14.559285192440552 18.61306591104209, 14.200522633420489 18.719544755376145, 13.719701886235413 18.86224982926107 M14.918047751460616 18.506587066708033 C14.562780689717096 18.612028465798648, 14.207513627973578 18.717469864889267, 13.719701886235413 18.86224982926107 M13.719701886235413 18.86224982926107 C13.402733812407522 18.9345957237023, 13.085765738579632 19.006941618143532, 12.501030759676766 19.140403561325773 M13.719701886235413 18.86224982926107 C13.342788122873554 18.94827793615625, 12.965874359511695 19.034306043051426, 12.501030759676766 19.140403561325773 M12.501030759676766 19.140403561325773 C12.143266177957157 19.19824416439243, 11.78550159623755 19.25608476745909, 11.267042152847878 19.3399052695533 M12.501030759676766 19.140403561325773 C12.091104498403949 19.206677260222726, 11.681178237131132 19.272950959119683, 11.267042152847878 19.3399052695533 M11.267042152847878 19.3399052695533 C10.888270471171703 19.376444918145005, 10.50949878949553 19.41298456673671, 10.0228067896239 19.45993515863156 M11.267042152847878 19.3399052695533 C10.953713147369985 19.370131741878488, 10.640384141892092 19.40035821420368, 10.0228067896239 19.45993515863156 M10.0228067896239 19.45993515863156 C9.652292640316011 19.47181682623782, 9.281778491008124 19.483698493844084, 8.773437500000004 19.5 M10.0228067896239 19.45993515863156 C9.759428664137083 19.4683811824815, 9.496050538650264 19.47682720633144, 8.773437500000004 19.5 M8.773437500000004 19.5 C8.773437500000002 19.5, 8.773437500000002 19.5, 8.7734375 19.5 M8.773437500000004 19.5 C8.773437500000004 19.5, 8.773437500000002 19.5, 8.7734375 19.5 M8.7734375 19.5 C4.87903863169803 19.5, 0.9846397633960597 19.5, -8.773437499999996 19.5 M8.7734375 19.5 C4.237158451351768 19.5, -0.29912059729646323 19.5, -8.773437499999996 19.5 M-8.773437499999996 19.5 C-9.146855948859079 19.488025197160006, -9.520274397718161 19.476050394320012, -10.022806789623893 19.45993515863156 M-8.773437499999996 19.5 C-9.16612065808032 19.487407415431765, -9.558803816160644 19.474814830863526, -10.022806789623893 19.45993515863156 M-10.022806789623893 19.45993515863156 C-10.391461578245442 19.424371474545488, -10.760116366866992 19.38880779045942, -11.267042152847871 19.3399052695533 M-10.022806789623893 19.45993515863156 C-10.293331521682473 19.43383796308346, -10.563856253741054 19.40774076753536, -11.267042152847871 19.3399052695533 M-11.267042152847871 19.3399052695533 C-11.587476171561166 19.28809998241066, -11.90791019027446 19.236294695268025, -12.501030759676759 19.140403561325773 M-11.267042152847871 19.3399052695533 C-11.738629440990747 19.263662694020397, -12.210216729133625 19.1874201184875, -12.501030759676759 19.140403561325773 M-12.501030759676759 19.140403561325773 C-12.878751829458919 19.05419119200833, -13.25647289924108 18.967978822690885, -13.719701886235388 18.862249829261074 M-12.501030759676759 19.140403561325773 C-12.856529199853972 19.059263362199445, -13.212027640031186 18.97812316307312, -13.719701886235388 18.862249829261074 M-13.719701886235388 18.862249829261074 C-14.107392884705625 18.747185175946687, -14.495083883175862 18.6321205226323, -14.918047751460593 18.506587066708043 M-13.719701886235388 18.862249829261074 C-14.054619516642926 18.762848034574635, -14.389537147050465 18.663446239888195, -14.918047751460593 18.506587066708043 M-14.918047751460593 18.506587066708043 C-15.17044154093424 18.413703819079128, -15.422835330407887 18.32082057145021, -16.091144095147797 18.074876768247425 M-14.918047751460593 18.506587066708043 C-15.339618778022269 18.351445031973494, -15.761189804583946 18.19630299723895, -16.091144095147797 18.074876768247425 M-16.091144095147797 18.074876768247425 C-16.374975148089757 17.949233180659057, -16.658806201031712 17.82358959307069, -17.23417041279238 17.568892924097174 M-16.091144095147797 18.074876768247425 C-16.485825544536688 17.900162998412178, -16.88050699392558 17.725449228576935, -17.23417041279238 17.568892924097174 M-17.23417041279238 17.568892924097174 C-17.568643590858226 17.394398481340517, -17.903116768924072 17.21990403858386, -18.34242976407678 16.990714730406097 M-17.23417041279238 17.568892924097174 C-17.56330766678414 17.397182229512143, -17.892444920775905 17.225471534927117, -18.34242976407678 16.990714730406097 M-18.34242976407678 16.990714730406097 C-18.762963830447443 16.73578450803971, -19.18349789681811 16.480854285673328, -19.411368073605686 16.3427180453909 M-18.34242976407678 16.990714730406097 C-18.727538157632146 16.757259759084707, -19.112646551187513 16.523804787763318, -19.411368073605686 16.3427180453909 M-19.411368073605686 16.3427180453909 C-19.732584587975794 16.118651310205106, -20.053801102345904 15.894584575019314, -20.436592844578712 15.627565626425156 M-19.411368073605686 16.3427180453909 C-19.676612389349987 16.157695092969043, -19.94185670509429 15.972672140547187, -20.436592844578712 15.627565626425156 M-20.436592844578712 15.627565626425156 C-20.633290652934637 15.470704358609813, -20.829988461290565 15.313843090794471, -21.41389120850187 14.848196188198125 M-20.436592844578712 15.627565626425156 C-20.727915885308324 15.395243253874986, -21.019238926037936 15.162920881324816, -21.41389120850187 14.848196188198125 M-21.41389120850187 14.848196188198125 C-21.617016244358172 14.663723405027373, -21.820141280214475 14.479250621856618, -22.339247236767974 14.007812326905697 M-21.41389120850187 14.848196188198125 C-21.618555138860465 14.662325821757308, -21.823219069219057 14.47645545531649, -22.339247236767974 14.007812326905697 M-22.339247236767974 14.007812326905697 C-22.623431094138297 13.714369162242235, -22.907614951508616 13.420925997578776, -23.208858442968655 13.109867360095677 M-22.339247236767974 14.007812326905697 C-22.61160059636829 13.726585122491697, -22.883953955968607 13.445357918077697, -23.208858442968655 13.109867360095677 M-23.208858442968655 13.109867360095677 C-23.413750541065628 12.869189442980312, -23.6186426391626 12.62851152586495, -24.01915140812658 12.158051136245307 M-23.208858442968655 13.109867360095677 C-23.487508475681334 12.782549176035332, -23.766158508394014 12.455230991974986, -24.01915140812658 12.158051136245307 M-24.01915140812658 12.158051136245307 C-24.258349656702933 11.83754727456173, -24.497547905279287 11.517043412878154, -24.766796464640635 11.156274872382316 M-24.01915140812658 12.158051136245307 C-24.19866715209657 11.917516393546236, -24.378182896066555 11.676981650847166, -24.766796464640635 11.156274872382316 M-24.766796464640635 11.156274872382316 C-24.954780408292567 10.867481054176102, -25.142764351944503 10.578687235969888, -25.448721378604244 10.108655082055249 M-24.766796464640635 11.156274872382316 C-25.038164085276648 10.739381334676159, -25.30953170591266 10.322487796970004, -25.448721378604244 10.108655082055249 M-25.448721378604244 10.108655082055249 C-25.656950689755412 9.738922854602164, -25.86518000090658 9.369190627149077, -26.0621239742735 9.019496659696289 M-25.448721378604244 10.108655082055249 C-25.67921733690715 9.699386167841729, -25.90971329521006 9.290117253628209, -26.0621239742735 9.019496659696289 M-26.0621239742735 9.019496659696289 C-26.26748267578749 8.593064922030177, -26.47284137730148 8.166633184364063, -26.60448364880834 7.893275190886686 M-26.0621239742735 9.019496659696289 C-26.19584867475677 8.741814457892554, -26.329573375240038 8.464132256088819, -26.60448364880834 7.893275190886686 M-26.60448364880834 7.893275190886686 C-26.711888687100558 7.627982669769757, -26.81929372539278 7.3626901486528284, -27.073571729970325 6.73461856121551 M-26.60448364880834 7.893275190886686 C-26.75646537193794 7.517877396389859, -26.908447095067537 7.142479601893033, -27.073571729970325 6.73461856121551 M-27.073571729970325 6.73461856121551 C-27.179960227522834 6.414193357292491, -27.28634872507534 6.0937681533694725, -27.46746063421488 5.5482879393051325 M-27.073571729970325 6.73461856121551 C-27.16623527293693 6.455530733730684, -27.258898815903535 6.176442906245858, -27.46746063421488 5.5482879393051325 M-27.46746063421488 5.5482879393051325 C-27.54478697916112 5.253409072575223, -27.62211332410736 4.958530205845312, -27.784531787545557 4.339158212148136 M-27.46746063421488 5.5482879393051325 C-27.544816535383397 5.2532963618899355, -27.622172436551914 4.958304784474739, -27.784531787545557 4.339158212148136 M-27.784531787545557 4.339158212148136 C-27.872130767148054 3.8893559659402106, -27.959729746750554 3.4395537197322854, -28.023482276581777 3.112197953150904 M-27.784531787545557 4.339158212148136 C-27.856636846748483 3.96891397255078, -27.92874190595141 3.5986697329534243, -28.023482276581777 3.112197953150904 M-28.023482276581777 3.112197953150904 C-28.087263455978988 2.6175237207646, -28.1510446353762 2.1228494883782956, -28.183330202509364 1.872449005199809 M-28.023482276581777 3.112197953150904 C-28.07668672692033 2.6995547427321562, -28.129891177258884 2.2869115323134084, -28.183330202509364 1.872449005199809 M-28.183330202509364 1.872449005199809 C-28.202791055185173 1.569330516256527, -28.222251907860983 1.266212027313245, -28.263418715913414 0.6250057626472781 M-28.183330202509364 1.872449005199809 C-28.20602541705586 1.5189527193907117, -28.22872063160235 1.1654564335816144, -28.263418715913414 0.6250057626472781 M-28.263418715913414 0.6250057626472781 C-28.263418715913414 0.1343534554306809, -28.263418715913414 -0.35629885178591636, -28.263418715913414 -0.6250057626472687 M-28.263418715913414 0.6250057626472781 C-28.263418715913414 0.16973556852991128, -28.263418715913414 -0.28553462558745557, -28.263418715913414 -0.6250057626472687 M-28.263418715913414 -0.6250057626472687 C-28.24156971620826 -0.9653215692501588, -28.219720716503108 -1.3056373758530488, -28.183330202509367 -1.8724490051997822 M-28.263418715913414 -0.6250057626472687 C-28.23819952521779 -1.0178150142959144, -28.21298033452217 -1.4106242659445603, -28.183330202509367 -1.8724490051997822 M-28.183330202509367 -1.8724490051997822 C-28.134750951044488 -2.2492200865031258, -28.086171699579612 -2.6259911678064696, -28.023482276581777 -3.112197953150895 M-28.183330202509367 -1.8724490051997822 C-28.12312156319807 -2.3394153221575835, -28.06291292388677 -2.806381639115385, -28.023482276581777 -3.112197953150895 M-28.023482276581777 -3.112197953150895 C-27.941534483387954 -3.532982551528957, -27.859586690194128 -3.9537671499070184, -27.78453178754556 -4.339158212148126 M-28.023482276581777 -3.112197953150895 C-27.97446989166568 -3.3638661909238357, -27.92545750674958 -3.615534428696776, -27.78453178754556 -4.339158212148126 M-27.78453178754556 -4.339158212148126 C-27.682948496122105 -4.726539328822757, -27.581365204698653 -5.113920445497389, -27.467460634214884 -5.548287939305123 M-27.78453178754556 -4.339158212148126 C-27.71928865403575 -4.587958556773969, -27.654045520525937 -4.836758901399812, -27.467460634214884 -5.548287939305123 M-27.467460634214884 -5.548287939305123 C-27.3856294540424 -5.794750415956675, -27.303798273869923 -6.041212892608227, -27.073571729970332 -6.734618561215485 M-27.467460634214884 -5.548287939305123 C-27.317425752078034 -6.000169099489192, -27.16739086994118 -6.45205025967326, -27.073571729970332 -6.734618561215485 M-27.073571729970332 -6.734618561215485 C-26.97703019763956 -6.973078012576046, -26.880488665308786 -7.211537463936606, -26.604483648808344 -7.893275190886676 M-27.073571729970332 -6.734618561215485 C-26.97837000036157 -6.969768673949358, -26.883168270752805 -7.204918786683232, -26.604483648808344 -7.893275190886676 M-26.604483648808344 -7.893275190886676 C-26.465989405902477 -8.180861449582794, -26.327495162996613 -8.468447708278912, -26.062123974273504 -9.019496659696282 M-26.604483648808344 -7.893275190886676 C-26.48146961388828 -8.148716466476888, -26.358455578968215 -8.404157742067099, -26.062123974273504 -9.019496659696282 M-26.062123974273504 -9.019496659696282 C-25.82872114205857 -9.433927022893512, -25.59531830984363 -9.848357386090742, -25.448721378604247 -10.108655082055243 M-26.062123974273504 -9.019496659696282 C-25.932132730359243 -9.25030927630685, -25.80214148644498 -9.481121892917418, -25.448721378604247 -10.108655082055243 M-25.448721378604247 -10.108655082055243 C-25.291397240655865 -10.350347205390198, -25.134073102707482 -10.592039328725155, -24.76679646464064 -11.156274872382308 M-25.448721378604247 -10.108655082055243 C-25.216888707211474 -10.464812321103445, -24.9850560358187 -10.820969560151648, -24.76679646464064 -11.156274872382308 M-24.76679646464064 -11.156274872382308 C-24.593781687469548 -11.388098911821118, -24.420766910298457 -11.619922951259928, -24.019151408126586 -12.158051136245302 M-24.76679646464064 -11.156274872382308 C-24.60059641815602 -11.378967793535987, -24.434396371671394 -11.601660714689665, -24.019151408126586 -12.158051136245302 M-24.019151408126586 -12.158051136245302 C-23.82003896464417 -12.391939942178743, -23.620926521161753 -12.625828748112182, -23.208858442968662 -13.10986736009567 M-24.019151408126586 -12.158051136245302 C-23.757178747443405 -12.465779130150448, -23.49520608676022 -12.773507124055595, -23.208858442968662 -13.10986736009567 M-23.208858442968662 -13.10986736009567 C-22.928473750341897 -13.399387575244182, -22.648089057715133 -13.688907790392694, -22.339247236767996 -14.007812326905677 M-23.208858442968662 -13.10986736009567 C-22.946220699579523 -13.381062393104704, -22.683582956190385 -13.652257426113739, -22.339247236767996 -14.007812326905677 M-22.339247236767996 -14.007812326905677 C-22.04618948754872 -14.273959620863481, -21.75313173832944 -14.540106914821283, -21.413891208501887 -14.848196188198107 M-22.339247236767996 -14.007812326905677 C-22.07212175161214 -14.250408624771188, -21.804996266456286 -14.4930049226367, -21.413891208501887 -14.848196188198107 M-21.413891208501887 -14.848196188198107 C-21.079442317132692 -15.114910279006263, -20.744993425763496 -15.38162436981442, -20.43659284457872 -15.627565626425149 M-21.413891208501887 -14.848196188198107 C-21.113649484051336 -15.087630973679586, -20.813407759600786 -15.327065759161064, -20.43659284457872 -15.627565626425149 M-20.43659284457872 -15.627565626425149 C-20.16156442513237 -15.819413546042531, -19.886536005686022 -16.011261465659913, -19.41136807360571 -16.342718045390885 M-20.43659284457872 -15.627565626425149 C-20.101859363611517 -15.861061212369023, -19.76712588264431 -16.094556798312897, -19.41136807360571 -16.342718045390885 M-19.41136807360571 -16.342718045390885 C-19.078683902192136 -16.544393145170996, -18.74599973077856 -16.746068244951104, -18.34242976407679 -16.99071473040609 M-19.41136807360571 -16.342718045390885 C-19.114363799189693 -16.522763781932728, -18.817359524773675 -16.70280951847457, -18.34242976407679 -16.99071473040609 M-18.34242976407679 -16.99071473040609 C-17.929672035659905 -17.206050172937235, -17.516914307243017 -17.421385615468385, -17.234170412792388 -17.56889292409717 M-18.34242976407679 -16.99071473040609 C-18.11387725962164 -17.109950425585478, -17.885324755166486 -17.229186120764865, -17.234170412792388 -17.56889292409717 M-17.234170412792388 -17.56889292409717 C-16.777444472396457 -17.7710719496168, -16.320718532000527 -17.973250975136427, -16.091144095147804 -18.07487676824742 M-17.234170412792388 -17.56889292409717 C-16.92950537830466 -17.703759097297745, -16.624840343816935 -17.83862527049832, -16.091144095147804 -18.07487676824742 M-16.091144095147804 -18.07487676824742 C-15.63711682742859 -18.241962999750147, -15.183089559709376 -18.409049231252872, -14.918047751460618 -18.506587066708033 M-16.091144095147804 -18.07487676824742 C-15.808675498301183 -18.178827822998063, -15.526206901454561 -18.282778877748704, -14.918047751460618 -18.506587066708033 M-14.918047751460618 -18.506587066708033 C-14.66464927438871 -18.581794404587225, -14.411250797316804 -18.65700174246642, -13.719701886235413 -18.862249829261067 M-14.918047751460618 -18.506587066708033 C-14.664906624637977 -18.581718024384102, -14.411765497815338 -18.656848982060172, -13.719701886235413 -18.862249829261067 M-13.719701886235413 -18.862249829261067 C-13.315674697891772 -18.954466398476704, -12.911647509548134 -19.04668296769234, -12.501030759676768 -19.140403561325773 M-13.719701886235413 -18.862249829261067 C-13.266823042530467 -18.965616470026077, -12.81394419882552 -19.06898311079109, -12.501030759676768 -19.140403561325773 M-12.501030759676768 -19.140403561325773 C-12.160493897595478 -19.195458920284267, -11.819957035514188 -19.250514279242765, -11.26704215284788 -19.3399052695533 M-12.501030759676768 -19.140403561325773 C-12.241996517325168 -19.182282208788628, -11.982962274973568 -19.224160856251483, -11.26704215284788 -19.3399052695533 M-11.26704215284788 -19.3399052695533 C-10.799660561712319 -19.384993009541542, -10.332278970576759 -19.43008074952979, -10.022806789623903 -19.45993515863156 M-11.26704215284788 -19.3399052695533 C-10.94618254394277 -19.370858210134237, -10.62532293503766 -19.401811150715176, -10.022806789623903 -19.45993515863156 M-10.022806789623903 -19.45993515863156 C-9.708161866650181 -19.470025208892135, -9.39351694367646 -19.480115259152715, -8.773437500000005 -19.5 M-10.022806789623903 -19.45993515863156 C-9.629689455228059 -19.472541666389162, -9.236572120832212 -19.485148174146765, -8.773437500000005 -19.5 M-8.773437500000005 -19.5 C-8.773437500000004 -19.5, -8.773437500000002 -19.5, -8.7734375 -19.5 M-8.773437500000005 -19.5 C-8.773437500000004 -19.5, -8.773437500000002 -19.5, -8.7734375 -19.5" stroke="#1d4ed8" stroke-width="1.3" fill="none" stroke-dasharray="0 0" style="fill:#dbeafe !important;stroke:#1d4ed8 !important"/></g><g class="label" style="color:#0b1d51 !important" transform="translate(-15.8984375, -12)"><rect/><foreignObject width="31.796875" height="24"><div style="color: rgb(11, 29, 81) !important; display: table-cell; white-space: nowrap; line-height: 1.5; max-width: 200px; text-align: center;" xmlns="http://www.w3.org/1999/xhtml"><span style="color:#0b1d51 !important" class="nodeLabel"><p>User</p></span></div></foreignObject></g></g><g class="node default userCustody" id="my-svg-flowchart-WALLET-1" data-look="classic" transform="translate(401.2768363952637, 720.25)"><rect class="basic label-container" style="fill:#dbeafe !important;stroke:#1d4ed8 !important" x="-92.9609375" y="-39" width="185.921875" height="78"/><g class="label" style="color:#0b1d51 !important" transform="translate(-62.9609375, -24)"><rect/><foreignObject width="125.921875" height="48"><div style="color: rgb(11, 29, 81) !important; display: table-cell; white-space: nowrap; line-height: 1.5; max-width: 200px; text-align: center;" xmlns="http://www.w3.org/1999/xhtml"><span style="color:#0b1d51 !important" class="nodeLabel"><p>Connected wallet<br />or Passkey</p></span></div></foreignObject></g></g><g class="node default havenCustody" id="my-svg-flowchart-WEB-2" data-look="classic" transform="translate(401.2768363952637, 521)"><rect class="basic label-container" style="fill:#ede9fe !important;stroke:#6d28d9 !important" x="-84.8046875" y="-39" width="169.609375" height="78"/><g class="label" style="color:#1f1147 !important" transform="translate(-54.8046875, -24)"><rect/><foreignObject width="109.609375" height="48"><div style="color: rgb(31, 17, 71) !important; display: table-cell; white-space: nowrap; line-height: 1.5; max-width: 200px; text-align: center;" xmlns="http://www.w3.org/1999/xhtml"><span style="color:#1f1147 !important" class="nodeLabel"><p>Haven web app<br />Next.js</p></span></div></foreignObject></g></g><g class="node default havenCustody" id="my-svg-flowchart-BE-3" data-look="classic" transform="translate(894.0815238952637, 399)"><rect class="basic label-container" style="fill:#ede9fe !important;stroke:#6d28d9 !important" x="-92.53125" y="-39" width="185.0625" height="78"/><g class="label" style="color:#1f1147 !important" transform="translate(-62.53125, -24)"><rect/><foreignObject width="125.0625" height="48"><div style="color: rgb(31, 17, 71) !important; display: table-cell; white-space: nowrap; line-height: 1.5; max-width: 200px; text-align: center;" xmlns="http://www.w3.org/1999/xhtml"><span style="color:#1f1147 !important" class="nodeLabel"><p>Haven backend<br />Fastify + Postgres</p></span></div></foreignObject></g></g><g class="node default havenCustody" id="my-svg-flowchart-RELAYER-4" data-look="classic" transform="translate(894.0815238952637, 258)"><rect class="basic label-container" style="fill:#ede9fe !important;stroke:#6d28d9 !important" x="-110.3046875" y="-39" width="220.609375" height="78"/><g class="label" style="color:#1f1147 !important" transform="translate(-80.3046875, -24)"><rect/><foreignObject width="160.609375" height="48"><div style="color: rgb(31, 17, 71) !important; display: table-cell; white-space: nowrap; line-height: 1.5; max-width: 200px; text-align: center;" xmlns="http://www.w3.org/1999/xhtml"><span style="color:#1f1147 !important" class="nodeLabel"><p>Relayer wallet<br />RELAYER_PRIVATE_KEY</p></span></div></foreignObject></g></g><g class="node default agentCustody" id="my-svg-flowchart-AGENT-5" data-look="classic" transform="translate(401.2768363952637, 102)"><rect class="basic label-container" style="fill:#ffedd5 !important;stroke:#c2410c !important" x="-113.125" y="-27" width="226.25" height="54"/><g class="label" style="color:#3a1c08 !important" transform="translate(-83.125, -12)"><rect/><foreignObject width="166.25" height="24"><div style="color: rgb(58, 28, 8) !important; display: table-cell; white-space: nowrap; line-height: 1.5; max-width: 200px; text-align: center;" xmlns="http://www.w3.org/1999/xhtml"><span style="color:#3a1c08 !important" class="nodeLabel"><p>External agent runtime</p></span></div></foreignObject></g></g><g class="node default onchain" id="my-svg-flowchart-SAFE-6" data-look="classic" transform="translate(1402.1518363952637, 806.25)"><rect class="basic label-container" style="fill:#dcfce7 !important;stroke:#15803d !important" x="-98.890625" y="-27" width="197.78125" height="54"/><g class="label" style="color:#0a2a17 !important" transform="translate(-68.890625, -12)"><rect/><foreignObject width="137.78125" height="24"><div style="color: rgb(10, 42, 23) !important; display: table-cell; white-space: nowrap; line-height: 1.5; max-width: 200px; text-align: center;" xmlns="http://www.w3.org/1999/xhtml"><span style="color:#0a2a17 !important" class="nodeLabel"><p>Safe smart account</p></span></div></foreignObject></g></g><g class="node default onchain" id="my-svg-flowchart-AM-7" data-look="classic" transform="translate(1783.0815238952637, 753.25)"><rect class="basic label-container" style="fill:#dcfce7 !important;stroke:#15803d !important" x="-92.1015625" y="-27" width="184.203125" height="54"/><g class="label" style="color:#0a2a17 !important" transform="translate(-62.1015625, -12)"><rect/><foreignObject width="124.203125" height="24"><div style="color: rgb(10, 42, 23) !important; display: table-cell; white-space: nowrap; line-height: 1.5; max-width: 200px; text-align: center;" xmlns="http://www.w3.org/1999/xhtml"><span style="color:#0a2a17 !important" class="nodeLabel"><p>AllowanceModule</p></span></div></foreignObject></g></g><g class="node default onchain" id="my-svg-flowchart-ERC20-8" data-look="classic" transform="translate(2179.9955863952637, 790.25)"><rect class="basic label-container" style="fill:#dcfce7 !important;stroke:#15803d !important" x="-86.40625" y="-39" width="172.8125" height="78"/><g class="label" style="color:#0a2a17 !important" transform="translate(-56.40625, -24)"><rect/><foreignObject width="112.8125" height="48"><div style="color: rgb(10, 42, 23) !important; display: table-cell; white-space: nowrap; line-height: 1.5; max-width: 200px; text-align: center;" xmlns="http://www.w3.org/1999/xhtml"><span style="color:#0a2a17 !important" class="nodeLabel"><p>ERC20 tokens<br />USDC, EURe, ...</p></span></div></foreignObject></g></g><g class="node default onchain" id="my-svg-flowchart-OWNERS-9" data-look="classic" transform="translate(894.0815238952637, 806.25)"><rect class="basic label-container" style="fill:#dcfce7 !important;stroke:#15803d !important" x="-120.5703125" y="-39" width="241.140625" height="78"/><g class="label" style="color:#0a2a17 !important" transform="translate(-90.5703125, -24)"><rect/><foreignObject width="181.140625" height="48"><div style="color: rgb(10, 42, 23) !important; display: table-cell; white-space: nowrap; line-height: 1.5; max-width: 200px; text-align: center;" xmlns="http://www.w3.org/1999/xhtml"><span style="color:#0a2a17 !important" class="nodeLabel"><p>Safe owners<br />on-chain EOAs / passkeys</p></span></div></foreignObject></g></g><g class="node default external" id="my-svg-flowchart-X402-10" data-look="classic" transform="translate(1402.1518363952637, 82)"><rect class="basic label-container" style="fill:#f3f4f6 !important;stroke:#4b5563 !important" x="-72.6015625" y="-39" width="145.203125" height="78"/><g class="label" style="color:#111827 !important" transform="translate(-42.6015625, -24)"><rect/><foreignObject width="85.203125" height="48"><div style="color: rgb(17, 24, 39) !important; display: table-cell; white-space: nowrap; line-height: 1.5; max-width: 200px; text-align: center;" xmlns="http://www.w3.org/1999/xhtml"><span style="color:#111827 !important" class="nodeLabel"><p>x402 server<br />/ facilitator</p></span></div></foreignObject></g></g><g class="node default external" id="my-svg-flowchart-RPC-11" data-look="classic" transform="translate(1402.1518363952637, 346)"><rect class="basic label-container" style="fill:#f3f4f6 !important;stroke:#4b5563 !important" x="-69.1484375" y="-27" width="138.296875" height="54"/><g class="label" style="color:#111827 !important" transform="translate(-39.1484375, -12)"><rect/><foreignObject width="78.296875" height="24"><div style="color: rgb(17, 24, 39) !important; display: table-cell; white-space: nowrap; line-height: 1.5; max-width: 200px; text-align: center;" xmlns="http://www.w3.org/1999/xhtml"><span style="color:#111827 !important" class="nodeLabel"><p>Gnosis RPC</p></span></div></foreignObject></g></g></g></g></g><defs><filter id="my-svg-drop-shadow" height="130%" width="130%"><feDropShadow dx="4" dy="4" stdDeviation="0" flood-opacity="0.06" flood-color="#000000"/></filter></defs><defs><filter id="my-svg-drop-shadow-small" height="150%" width="150%"><feDropShadow dx="2" dy="2" stdDeviation="0" flood-opacity="0.06" flood-color="#000000"/></filter></defs></svg>